<svg width="63" height="63" viewBox="0 0 63 63" xmlns="http://www.w3.org/2000/svg"><title>FAQ</title><g fill="gray" fill-rule="evenodd"><path d="M.62 31.677c0 17.125 13.933 31.057 31.058 31.057s31.056-13.93 31.056-31.057C62.734 14.552 48.804.62 31.678.62 14.553.62.62 14.553.62 31.677zm56.986 0c0 14.3-11.632 25.93-25.928 25.93-14.297 0-25.93-11.63-25.93-25.93 0-14.298 11.633-25.93 25.93-25.93 14.296 0 25.928 11.633 25.928 25.93z" id="Shape"/><path d="M28.228 39.315c.016-2.23.273-3.824.772-4.783.5-.96 1.606-2.164 3.322-3.614 1.217-1.185 2.183-2.32 2.9-3.405.717-1.083 1.077-2.28 1.077-3.59 0-1.513-.41-2.687-1.23-3.52-.82-.835-1.985-1.253-3.497-1.253-1.294 0-2.393.355-3.298 1.065-.904.71-1.356 1.76-1.356 3.146h-5.475l-.072-.14c-.045-2.775.885-4.94 2.795-6.49 1.91-1.553 4.38-2.33 7.405-2.33 3.275 0 5.83.835 7.662 2.503 1.833 1.67 2.75 3.985 2.75 6.95 0 1.98-.576 3.816-1.72 5.508-1.147 1.693-2.594 3.24-4.342 4.644-.888.78-1.445 1.522-1.672 2.223-.226.703-.338 1.732-.338 3.088h-5.684zm5.778 9.64h-5.802v-5.452h5.802v5.45z"/></g></svg>