<svg width="60" height="59" viewBox="0 0 60 59" xmlns="http://www.w3.org/2000/svg"><title>User</title><path d="M59.958 58.77H.252l-.004-3.73C.21 48.525.178 42.9 9.29 40.8l.487-.114c4.217-.97 9.463-2.178 10.33-4.1.276-.61.088-1.518-.555-2.705-6.003-11.047-7.127-19.73-3.155-26.398 2.743-4.608 7.74-7.25 13.71-7.25 5.92 0 10.887 2.6 13.62 7.145 3.96 6.584 2.875 15.294-3.06 26.483-.634 1.196-.814 2.117-.535 2.73.877 1.926 5.98 3.1 10.475 4.138l.314.073c9.11 2.103 9.08 7.727 9.04 14.24l-.002 3.73zM4.702 54.31h50.806c.027-6.028-.16-7.918-5.588-9.164l-.31-.073c-6.038-1.393-11.738-2.707-13.532-6.628-.886-1.94-.664-4.187.653-6.672 5.174-9.75 6.3-16.902 3.174-22.096C37.97 6.46 34.49 4.69 30.106 4.69c-4.425 0-7.928 1.803-9.877 5.076-3.135 5.26-1.984 12.375 3.24 21.988 1.345 2.472 1.58 4.72.703 6.662-1.777 3.94-7.42 5.24-13.394 6.612l-.49.114c-5.426 1.252-5.615 3.14-5.588 9.17z" fill="gray" fill-rule="evenodd"/></svg>